<svg xmlns="http://www.w3.org/2000/svg" viewBox="0 0 240 240">
<defs><radialGradient id="bg" cx="52%" cy="38%" r="85%"><stop offset="0%" stop-color="#0d2137"/><stop offset="100%" stop-color="#071320"/></radialGradient><filter id="g" x="-20%" y="-20%" width="140%" height="140%"><feGaussianBlur stdDeviation="1.7"/></filter></defs>
<rect width="240" height="240" fill="url(#bg)"/>
<g filter="url(#g)" opacity="0.5">
<line x1="4.0" y1="252.0" x2="131.0" y2="29.0" stroke="#1a3696" stroke-width="1.7"/>
<line x1="6.0" y1="249.0" x2="132.7" y2="32.1" stroke="#193697" stroke-width="1.7"/>
<line x1="8.1" y1="245.9" x2="134.4" y2="35.1" stroke="#193799" stroke-width="1.7"/>
<line x1="10.1" y1="242.9" x2="136.0" y2="38.2" stroke="#19379b" stroke-width="1.7"/>
<line x1="12.1" y1="239.8" x2="137.7" y2="41.3" stroke="#19389d" stroke-width="1.7"/>
<line x1="14.1" y1="236.8" x2="139.4" y2="44.3" stroke="#19389e" stroke-width="1.7"/>
<line x1="16.2" y1="233.8" x2="141.1" y2="47.4" stroke="#1939a0" stroke-width="1.7"/>
<line x1="18.2" y1="230.7" x2="142.8" y2="50.5" stroke="#1839a2" stroke-width="1.7"/>
<line x1="20.2" y1="227.7" x2="144.4" y2="53.6" stroke="#183aa4" stroke-width="1.7"/>
<line x1="22.2" y1="224.6" x2="146.1" y2="56.6" stroke="#183aa6" stroke-width="1.7"/>
<line x1="24.3" y1="221.6" x2="147.8" y2="59.7" stroke="#183ba7" stroke-width="1.7"/>
<line x1="26.3" y1="218.5" x2="149.5" y2="62.8" stroke="#183ba9" stroke-width="1.7"/>
<line x1="28.3" y1="215.5" x2="151.2" y2="65.8" stroke="#183cab" stroke-width="1.7"/>
<line x1="30.4" y1="212.5" x2="152.8" y2="68.9" stroke="#173cad" stroke-width="1.7"/>
<line x1="32.4" y1="209.4" x2="154.5" y2="72.0" stroke="#173dae" stroke-width="1.7"/>
<line x1="34.4" y1="206.4" x2="156.2" y2="75.0" stroke="#173db0" stroke-width="1.7"/>
<line x1="36.4" y1="203.3" x2="157.9" y2="78.1" stroke="#173eb2" stroke-width="1.7"/>
<line x1="38.5" y1="200.3" x2="159.6" y2="81.2" stroke="#173eb4" stroke-width="1.7"/>
<line x1="40.5" y1="197.2" x2="161.2" y2="84.2" stroke="#173fb6" stroke-width="1.7"/>
<line x1="42.5" y1="194.2" x2="162.9" y2="87.3" stroke="#163fb7" stroke-width="1.7"/>
<line x1="44.6" y1="191.2" x2="164.6" y2="90.4" stroke="#1640b9" stroke-width="1.7"/>
<line x1="46.6" y1="188.1" x2="166.3" y2="93.5" stroke="#1640bb" stroke-width="1.7"/>
<line x1="48.6" y1="185.1" x2="168.0" y2="96.5" stroke="#1641bd" stroke-width="1.7"/>
<line x1="50.6" y1="182.0" x2="169.7" y2="99.6" stroke="#1641be" stroke-width="1.7"/>
<line x1="52.7" y1="179.0" x2="171.3" y2="102.7" stroke="#1642c0" stroke-width="1.7"/>
<line x1="54.7" y1="176.0" x2="173.0" y2="105.7" stroke="#1542c2" stroke-width="1.7"/>
<line x1="56.7" y1="172.9" x2="174.7" y2="108.8" stroke="#1543c4" stroke-width="1.7"/>
<line x1="58.8" y1="169.9" x2="176.4" y2="111.9" stroke="#1543c6" stroke-width="1.7"/>
<line x1="60.8" y1="166.8" x2="178.1" y2="114.9" stroke="#1544c7" stroke-width="1.7"/>
<line x1="62.8" y1="163.8" x2="179.7" y2="118.0" stroke="#1544c9" stroke-width="1.7"/>
<line x1="64.8" y1="160.8" x2="181.4" y2="121.1" stroke="#1545cb" stroke-width="1.7"/>
<line x1="66.9" y1="157.7" x2="183.1" y2="124.2" stroke="#1445cd" stroke-width="1.7"/>
<line x1="68.9" y1="154.7" x2="184.8" y2="127.2" stroke="#1446ce" stroke-width="1.7"/>
<line x1="70.9" y1="151.6" x2="186.5" y2="130.3" stroke="#1446d0" stroke-width="1.7"/>
<line x1="72.9" y1="148.6" x2="188.1" y2="133.4" stroke="#1447d2" stroke-width="1.7"/>
<line x1="75.0" y1="145.5" x2="189.8" y2="136.4" stroke="#1447d4" stroke-width="1.7"/>
<line x1="77.0" y1="142.5" x2="191.5" y2="139.5" stroke="#1448d6" stroke-width="1.7"/>
<line x1="79.0" y1="139.5" x2="193.2" y2="142.6" stroke="#164bd7" stroke-width="1.7"/>
<line x1="81.1" y1="136.4" x2="194.9" y2="145.6" stroke="#184ed8" stroke-width="1.7"/>
<line x1="83.1" y1="133.4" x2="196.5" y2="148.7" stroke="#1a51da" stroke-width="1.7"/>
<line x1="85.1" y1="130.3" x2="198.2" y2="151.8" stroke="#1c54db" stroke-width="1.7"/>
<line x1="87.1" y1="127.3" x2="199.9" y2="154.8" stroke="#1e57dc" stroke-width="1.7"/>
<line x1="89.2" y1="124.2" x2="201.6" y2="157.9" stroke="#215ade" stroke-width="1.7"/>
<line x1="91.2" y1="121.2" x2="203.3" y2="161.0" stroke="#235ddf" stroke-width="1.7"/>
<line x1="93.2" y1="118.2" x2="204.9" y2="164.1" stroke="#2560e1" stroke-width="1.7"/>
<line x1="95.2" y1="115.1" x2="206.6" y2="167.1" stroke="#2763e2" stroke-width="1.7"/>
<line x1="97.3" y1="112.1" x2="208.3" y2="170.2" stroke="#2966e3" stroke-width="1.7"/>
<line x1="99.3" y1="109.0" x2="210.0" y2="173.3" stroke="#2c69e5" stroke-width="1.7"/>
<line x1="101.3" y1="106.0" x2="211.7" y2="176.3" stroke="#2e6ce6" stroke-width="1.7"/>
<line x1="103.4" y1="103.0" x2="213.3" y2="179.4" stroke="#306fe8" stroke-width="1.7"/>
<line x1="105.4" y1="99.9" x2="215.0" y2="182.5" stroke="#3273e9" stroke-width="1.7"/>
<line x1="107.4" y1="96.9" x2="216.7" y2="185.5" stroke="#3476ea" stroke-width="1.7"/>
<line x1="109.4" y1="93.8" x2="218.4" y2="188.6" stroke="#3679ec" stroke-width="1.7"/>
<line x1="111.5" y1="90.8" x2="220.1" y2="191.7" stroke="#397ced" stroke-width="1.7"/>
<line x1="113.5" y1="87.8" x2="221.8" y2="194.8" stroke="#3b7fef" stroke-width="1.7"/>
<line x1="115.5" y1="84.7" x2="223.4" y2="197.8" stroke="#3d82f0" stroke-width="1.7"/>
<line x1="117.6" y1="81.7" x2="225.1" y2="200.9" stroke="#3f85f1" stroke-width="1.7"/>
<line x1="119.6" y1="78.6" x2="226.8" y2="204.0" stroke="#438af2" stroke-width="1.7"/>
<line x1="121.6" y1="75.6" x2="228.5" y2="207.0" stroke="#4690f3" stroke-width="1.7"/>
<line x1="123.6" y1="72.5" x2="230.2" y2="210.1" stroke="#4a96f3" stroke-width="1.7"/>
<line x1="125.7" y1="69.5" x2="231.8" y2="213.2" stroke="#4e9cf4" stroke-width="1.7"/>
<line x1="127.7" y1="66.5" x2="233.5" y2="216.2" stroke="#51a2f5" stroke-width="1.7"/>
<line x1="129.7" y1="63.4" x2="235.2" y2="219.3" stroke="#55a7f5" stroke-width="1.7"/>
<line x1="131.8" y1="60.4" x2="236.9" y2="222.4" stroke="#59adf6" stroke-width="1.7"/>
<line x1="133.8" y1="57.3" x2="238.6" y2="225.4" stroke="#5cb3f6" stroke-width="1.7"/>
<line x1="135.8" y1="54.3" x2="240.2" y2="228.5" stroke="#60b9f7" stroke-width="1.7"/>
<line x1="137.8" y1="51.2" x2="241.9" y2="231.6" stroke="#64bff8" stroke-width="1.7"/>
<line x1="139.9" y1="48.2" x2="243.6" y2="234.7" stroke="#67c4f8" stroke-width="1.7"/>
<line x1="141.9" y1="45.2" x2="245.3" y2="237.7" stroke="#6bcaf9" stroke-width="1.7"/>
<line x1="143.9" y1="42.1" x2="247.0" y2="240.8" stroke="#6fd0fa" stroke-width="1.7"/>
<line x1="145.9" y1="39.1" x2="248.6" y2="243.9" stroke="#72d6fa" stroke-width="1.7"/>
<line x1="148.0" y1="36.0" x2="250.3" y2="246.9" stroke="#76dcfb" stroke-width="1.7"/>
<line x1="150.0" y1="33.0" x2="252.0" y2="250.0" stroke="#7ae2fc" stroke-width="1.7"/>
</g>
<line x1="4.0" y1="252.0" x2="131.0" y2="29.0" stroke="#1a3696" stroke-width="0.85"/>
<line x1="6.0" y1="249.0" x2="132.7" y2="32.1" stroke="#193697" stroke-width="0.85"/>
<line x1="8.1" y1="245.9" x2="134.4" y2="35.1" stroke="#193799" stroke-width="0.85"/>
<line x1="10.1" y1="242.9" x2="136.0" y2="38.2" stroke="#19379b" stroke-width="0.85"/>
<line x1="12.1" y1="239.8" x2="137.7" y2="41.3" stroke="#19389d" stroke-width="0.85"/>
<line x1="14.1" y1="236.8" x2="139.4" y2="44.3" stroke="#19389e" stroke-width="0.85"/>
<line x1="16.2" y1="233.8" x2="141.1" y2="47.4" stroke="#1939a0" stroke-width="0.85"/>
<line x1="18.2" y1="230.7" x2="142.8" y2="50.5" stroke="#1839a2" stroke-width="0.85"/>
<line x1="20.2" y1="227.7" x2="144.4" y2="53.6" stroke="#183aa4" stroke-width="0.85"/>
<line x1="22.2" y1="224.6" x2="146.1" y2="56.6" stroke="#183aa6" stroke-width="0.85"/>
<line x1="24.3" y1="221.6" x2="147.8" y2="59.7" stroke="#183ba7" stroke-width="0.85"/>
<line x1="26.3" y1="218.5" x2="149.5" y2="62.8" stroke="#183ba9" stroke-width="0.85"/>
<line x1="28.3" y1="215.5" x2="151.2" y2="65.8" stroke="#183cab" stroke-width="0.85"/>
<line x1="30.4" y1="212.5" x2="152.8" y2="68.9" stroke="#173cad" stroke-width="0.85"/>
<line x1="32.4" y1="209.4" x2="154.5" y2="72.0" stroke="#173dae" stroke-width="0.85"/>
<line x1="34.4" y1="206.4" x2="156.2" y2="75.0" stroke="#173db0" stroke-width="0.85"/>
<line x1="36.4" y1="203.3" x2="157.9" y2="78.1" stroke="#173eb2" stroke-width="0.85"/>
<line x1="38.5" y1="200.3" x2="159.6" y2="81.2" stroke="#173eb4" stroke-width="0.85"/>
<line x1="40.5" y1="197.2" x2="161.2" y2="84.2" stroke="#173fb6" stroke-width="0.85"/>
<line x1="42.5" y1="194.2" x2="162.9" y2="87.3" stroke="#163fb7" stroke-width="0.85"/>
<line x1="44.6" y1="191.2" x2="164.6" y2="90.4" stroke="#1640b9" stroke-width="0.85"/>
<line x1="46.6" y1="188.1" x2="166.3" y2="93.5" stroke="#1640bb" stroke-width="0.85"/>
<line x1="48.6" y1="185.1" x2="168.0" y2="96.5" stroke="#1641bd" stroke-width="0.85"/>
<line x1="50.6" y1="182.0" x2="169.7" y2="99.6" stroke="#1641be" stroke-width="0.85"/>
<line x1="52.7" y1="179.0" x2="171.3" y2="102.7" stroke="#1642c0" stroke-width="0.85"/>
<line x1="54.7" y1="176.0" x2="173.0" y2="105.7" stroke="#1542c2" stroke-width="0.85"/>
<line x1="56.7" y1="172.9" x2="174.7" y2="108.8" stroke="#1543c4" stroke-width="0.85"/>
<line x1="58.8" y1="169.9" x2="176.4" y2="111.9" stroke="#1543c6" stroke-width="0.85"/>
<line x1="60.8" y1="166.8" x2="178.1" y2="114.9" stroke="#1544c7" stroke-width="0.85"/>
<line x1="62.8" y1="163.8" x2="179.7" y2="118.0" stroke="#1544c9" stroke-width="0.85"/>
<line x1="64.8" y1="160.8" x2="181.4" y2="121.1" stroke="#1545cb" stroke-width="0.85"/>
<line x1="66.9" y1="157.7" x2="183.1" y2="124.2" stroke="#1445cd" stroke-width="0.85"/>
<line x1="68.9" y1="154.7" x2="184.8" y2="127.2" stroke="#1446ce" stroke-width="0.85"/>
<line x1="70.9" y1="151.6" x2="186.5" y2="130.3" stroke="#1446d0" stroke-width="0.85"/>
<line x1="72.9" y1="148.6" x2="188.1" y2="133.4" stroke="#1447d2" stroke-width="0.85"/>
<line x1="75.0" y1="145.5" x2="189.8" y2="136.4" stroke="#1447d4" stroke-width="0.85"/>
<line x1="77.0" y1="142.5" x2="191.5" y2="139.5" stroke="#1448d6" stroke-width="0.85"/>
<line x1="79.0" y1="139.5" x2="193.2" y2="142.6" stroke="#164bd7" stroke-width="0.85"/>
<line x1="81.1" y1="136.4" x2="194.9" y2="145.6" stroke="#184ed8" stroke-width="0.85"/>
<line x1="83.1" y1="133.4" x2="196.5" y2="148.7" stroke="#1a51da" stroke-width="0.85"/>
<line x1="85.1" y1="130.3" x2="198.2" y2="151.8" stroke="#1c54db" stroke-width="0.85"/>
<line x1="87.1" y1="127.3" x2="199.9" y2="154.8" stroke="#1e57dc" stroke-width="0.85"/>
<line x1="89.2" y1="124.2" x2="201.6" y2="157.9" stroke="#215ade" stroke-width="0.85"/>
<line x1="91.2" y1="121.2" x2="203.3" y2="161.0" stroke="#235ddf" stroke-width="0.85"/>
<line x1="93.2" y1="118.2" x2="204.9" y2="164.1" stroke="#2560e1" stroke-width="0.85"/>
<line x1="95.2" y1="115.1" x2="206.6" y2="167.1" stroke="#2763e2" stroke-width="0.85"/>
<line x1="97.3" y1="112.1" x2="208.3" y2="170.2" stroke="#2966e3" stroke-width="0.85"/>
<line x1="99.3" y1="109.0" x2="210.0" y2="173.3" stroke="#2c69e5" stroke-width="0.85"/>
<line x1="101.3" y1="106.0" x2="211.7" y2="176.3" stroke="#2e6ce6" stroke-width="0.85"/>
<line x1="103.4" y1="103.0" x2="213.3" y2="179.4" stroke="#306fe8" stroke-width="0.85"/>
<line x1="105.4" y1="99.9" x2="215.0" y2="182.5" stroke="#3273e9" stroke-width="0.85"/>
<line x1="107.4" y1="96.9" x2="216.7" y2="185.5" stroke="#3476ea" stroke-width="0.85"/>
<line x1="109.4" y1="93.8" x2="218.4" y2="188.6" stroke="#3679ec" stroke-width="0.85"/>
<line x1="111.5" y1="90.8" x2="220.1" y2="191.7" stroke="#397ced" stroke-width="0.85"/>
<line x1="113.5" y1="87.8" x2="221.8" y2="194.8" stroke="#3b7fef" stroke-width="0.85"/>
<line x1="115.5" y1="84.7" x2="223.4" y2="197.8" stroke="#3d82f0" stroke-width="0.85"/>
<line x1="117.6" y1="81.7" x2="225.1" y2="200.9" stroke="#3f85f1" stroke-width="0.85"/>
<line x1="119.6" y1="78.6" x2="226.8" y2="204.0" stroke="#438af2" stroke-width="0.85"/>
<line x1="121.6" y1="75.6" x2="228.5" y2="207.0" stroke="#4690f3" stroke-width="0.85"/>
<line x1="123.6" y1="72.5" x2="230.2" y2="210.1" stroke="#4a96f3" stroke-width="0.85"/>
<line x1="125.7" y1="69.5" x2="231.8" y2="213.2" stroke="#4e9cf4" stroke-width="0.85"/>
<line x1="127.7" y1="66.5" x2="233.5" y2="216.2" stroke="#51a2f5" stroke-width="0.85"/>
<line x1="129.7" y1="63.4" x2="235.2" y2="219.3" stroke="#55a7f5" stroke-width="0.85"/>
<line x1="131.8" y1="60.4" x2="236.9" y2="222.4" stroke="#59adf6" stroke-width="0.85"/>
<line x1="133.8" y1="57.3" x2="238.6" y2="225.4" stroke="#5cb3f6" stroke-width="0.85"/>
<line x1="135.8" y1="54.3" x2="240.2" y2="228.5" stroke="#60b9f7" stroke-width="0.85"/>
<line x1="137.8" y1="51.2" x2="241.9" y2="231.6" stroke="#64bff8" stroke-width="0.85"/>
<line x1="139.9" y1="48.2" x2="243.6" y2="234.7" stroke="#67c4f8" stroke-width="0.85"/>
<line x1="141.9" y1="45.2" x2="245.3" y2="237.7" stroke="#6bcaf9" stroke-width="0.85"/>
<line x1="143.9" y1="42.1" x2="247.0" y2="240.8" stroke="#6fd0fa" stroke-width="0.85"/>
<line x1="145.9" y1="39.1" x2="248.6" y2="243.9" stroke="#72d6fa" stroke-width="0.85"/>
<line x1="148.0" y1="36.0" x2="250.3" y2="246.9" stroke="#76dcfb" stroke-width="0.85"/>
<line x1="150.0" y1="33.0" x2="252.0" y2="250.0" stroke="#7ae2fc" stroke-width="0.85"/>
</svg>
